SplineFontDB: 3.2
FontName: PizzaMan
FullName: PizzaMan
FamilyName: PizzaMan
Weight: Regular
Copyright: Copyright (c) 2021, Nicholas Diesslin
UComments: "2021-5-7: Created with FontForge (http://fontforge.org)"
Version: 001.000
ItalicAngle: 0
UnderlinePosition: -100
UnderlineWidth: 50
Ascent: 800
Descent: 200
InvalidEm: 0
LayerCount: 2
Layer: 0 0 "Back" 1
Layer: 1 0 "Fore" 0
XUID: [1021 496 314160248 4634703]
StyleMap: 0x0000
FSType: 0
OS2Version: 0
OS2_WeightWidthSlopeOnly: 0
OS2_UseTypoMetrics: 1
CreationTime: 1620413312
ModificationTime: 1620883127
OS2TypoAscent: 0
OS2TypoAOffset: 1
OS2TypoDescent: 0
OS2TypoDOffset: 1
OS2TypoLinegap: 90
OS2WinAscent: 0
OS2WinAOffset: 1
OS2WinDescent: 0
OS2WinDOffset: 1
HheadAscent: 0
HheadAOffset: 1
HheadDescent: 0
HheadDOffset: 1
Lookup: 258 0 0 "Kern - Uppercase angle" { "Lowercase round right" [150,15,0] "Lowercase corner right" [150,15,0] "Letter j right" [150,15,0] "Lowercase round left" [150,15,0] "Lowercase corner left" [150,15,0] "Letter l left" [150,15,0] } ['kern' ('DFLT' <'dflt' > 'latn' <'dflt' > ) ]
MarkAttachClasses: 1
DEI: 91125
KernClass2: 1+ 2 "Letter l left"
 3 L l
 5 V X Y
 0 {} -180 {}
KernClass2: 2 2 "Lowercase corner left"
 29 e f h i j k m n t u v w x y z
 5 V X Y
 0 {} 0 {} 0 {} -40 {}
KernClass2: 1+ 2 "Lowercase round left"
 19 a b c d g o p q r s
 5 V X Y
 0 {} -80 {}
KernClass2: 1+ 2 "Letter j right"
 5 V X Y
 3 J j
 0 {} -180 {}
KernClass2: 1+ 2 "Lowercase corner right"
 5 V X Y
 35 b d f h i k l m n p r t u v w x y z
 0 {} -40 {}
KernClass2: 1+ 2 "Lowercase round right"
 5 V X Y
 15 a c e g o p q s
 0 {} -80 {}
Encoding: ISO8859-1
UnicodeInterp: none
NameList: AGL For New Fonts
DisplaySize: -48
AntiAlias: 1
FitToEm: 0
WidthSeparation: 80
WinInfo: 0 29 12
BeginPrivate: 0
EndPrivate
Grid
-1000 0 m 0
 2000 0 l 1024
  Named: "Base Line"
-1000 600.499938965 m 0
 2000 600.499938965 l 1024
  Named: "X-Height"
-1000 700 m 0
 2000 700 l 1024
  Named: "Ascender Line"
-1000 750 m 0
 2000 750 l 1024

StartChar: N
Encoding: 78 78 0
Width: 737
Flags: W
HStem: 0 21G<40 286 360.658 697> 0 21G<40 286 360.658 697> 680 20G<40 376.384 451 697>
VStem: 40 246<0 199> 451 246<502 699>
LayerCount: 2
Back
Fore
SplineSet
40 0 m 1xb8
 40 700 l 25
 368 700 l 1
 451 502 l 25
 451 699 l 1
 697 700 l 1
 697 0 l 25
 369 0 l 5
 286 199 l 29
 286 0 l 5
 40 0 l 1xb8
EndSplineSet
Validated: 1
EndChar

StartChar: I
Encoding: 73 73 1
Width: 408
Flags: W
HStem: 0 21G<40 368> 0 21G<40 368> 680 20G<40 368>
VStem: 40 328<0 700>
LayerCount: 2
Fore
SplineSet
40 0 m 5xb0
 40 700 l 5
 368 700 l 5
 368 0 l 5
 40 0 l 5xb0
EndSplineSet
Validated: 1
EndChar

StartChar: Z
Encoding: 90 90 2
Width: 594
InSpiro: 1
Flags: W
HStem: 0 21G<40 554> 0 21G<40 554> 680 20G<42 554>
VStem: 40 514<0 246 454 700>
LayerCount: 2
Back
Fore
SplineSet
554 0 m 1xb0
 40 0 l 1
 40 246 l 1
 171 454 l 1
 42 454 l 1
 42 700 l 1
 554 700 l 1
 554 454 l 1
 425 246 l 1
 554 246 l 1
 554 0 l 1xb0
  Spiro
    554 0 v
    40 0 v
    40 246 v
    171 454 v
    42 454 v
    42 700 v
    554 700 v
    554 454 v
    425 246 v
    554 246 v
    0 0 z
  EndSpiro
EndSplineSet
Validated: 1
EndChar

StartChar: A
Encoding: 65 65 3
Width: 737
Flags: W
HStem: 0 21G<40 332 416 697> 0 21G<40 332 416 697> 680 20G<101 638>
VStem: 40 293<0 101.813 307.141 513.859> 417 280<0 101.813 307.142 513.859>
LayerCount: 2
Back
Fore
SplineSet
336 514 m 24x38
 333 511 333 507 333 507 c 0
 333 314 l 0
 333 314 333 310 336 307 c 24
 339 304 343 304 343 304 c 0
 407 304 l 0
 407 304 411 304 414 307 c 24
 417 310 417 315 417 315 c 0
 417 507 l 0
 417 507 417 511 414 514 c 24
 411 517 407 517 407 517 c 0
 343 517 l 0
 343 517 339 517 336 514 c 24x38
416 0 m 0xb8
 416 95 l 0
 416 95 416 98 413 102 c 24
 410 106 405 106 405 106 c 0
 343 106 l 0
 343 106 338 106 335 102 c 24
 332 98 332 95 332 95 c 0
 332 0 l 0
 40 0 l 1
 40 616 l 3
 40 662 78 700 124 700 c 0
 613 700 l 3
 663 700 697 662 697 616 c 0
 697 0 l 1
 416 0 l 0xb8
EndSplineSet
Validated: 1
EndChar

StartChar: P
Encoding: 80 80 4
Width: 737
Flags: W
HStem: 0 21G<40 332> 0 21G<40 332> 680 20G<40 638>
VStem: 40 293<0 101.813 307.141 513.859> 417 280<307.142 513.859>
LayerCount: 2
Fore
SplineSet
613 700 m 19xb8
 663 700 697 662 697 616 c 0
 697 190 l 3
 697 140 663 106 613 106 c 0
 343 106 l 0
 343 106 338 106 335 102 c 0
 332 98 332 95 332 95 c 0
 332 0 l 0
 40 0 l 1
 40 700 l 1
 613 700 l 19xb8
336 514 m 28
 333 511 333 507 333 507 c 4
 333 314 l 4
 333 314 333 310 336 307 c 28
 339 304 343 304 343 304 c 4
 407 304 l 4
 407 304 411 304 414 307 c 28
 417 310 417 315 417 315 c 4
 417 507 l 4
 417 507 417 511 414 514 c 28
 411 517 407 517 407 517 c 4
 343 517 l 4
 343 517 339 517 336 514 c 28
EndSplineSet
Validated: 1
EndChar

StartChar: M
Encoding: 77 77 5
Width: 819
Flags: W
HStem: 0 21G<40 286 360.658 458.342 533 779> 0 21G<40 286 360.658 458.342 533 779> 680 20G<40 372.04 446.657 779>
VStem: 40 246<0 199> 533 246<0 199>
LayerCount: 2
Fore
SplineSet
369 0 m 21xb8
 286 199 l 5
 286 0 l 5
 40 0 l 5
 40 700 l 5
 368 700 l 5
 408 502 l 5
 451 700 l 5
 779 700 l 29
 779 0 l 5
 533 0 l 5
 533 199 l 29
 450 0 l 5
 369 0 l 21xb8
EndSplineSet
Validated: 1
EndChar

StartChar: J
Encoding: 74 74 6
Width: 737
Flags: W
HStem: 680 20G<405 697>
VStem: 405 292<186.141 700>
LayerCount: 2
Fore
SplineSet
321 267 m 17
 321 193 l 0
 321 193 321 189 324 186 c 24
 327 183 331 183 331 183 c 0
 395 183 l 0
 395 183 399 183 402 186 c 24
 405 189 405 193 405 193 c 0
 405 700 l 0
 697 700 l 1
 697 0 l 1
 124 0 l 3
 74 0 40 38 40 84 c 9
 40 155 40 267 40 267 c 0
 321 267 l 17
EndSplineSet
Validated: 1
EndChar

StartChar: H
Encoding: 72 72 7
Width: 737
Flags: W
HStem: 0 21G<40 332 416 697> 0 21G<40 332 416 697> 680 20G<40 333 417 697>
VStem: 40 293<0 241.813 457.141 700> 416 281<0 241.813 457.142 700>
LayerCount: 2
Fore
SplineSet
417 700 m 1xb8
 697 700 l 0
 697 0 l 1
 416 0 l 0
 416 235 l 0
 416 235 416 238 413 242 c 24
 410 246 405 246 405 246 c 0
 343 246 l 0
 343 246 338 246 335 242 c 24
 332 238 332 235 332 235 c 0
 332 0 l 0
 40 0 l 9
 40 700 l 1
 333 700 l 0
 333 464 l 0
 333 464 333 460 336 457 c 24
 339 454 343 454 343 454 c 0
 407 454 l 0
 407 454 411 454 414 457 c 24
 417 460 417 465 417 465 c 0
 417 700 l 1xb8
EndSplineSet
Validated: 1
EndChar

StartChar: O
Encoding: 79 79 8
Width: 737
Flags: W
HStem: 0 21G<99 638> 0 21G<99 638> 680 20G<99 638>
VStem: 40 293<186.141 513.859> 417 280<186.142 513.859>
LayerCount: 2
Fore
SplineSet
124 700 m 1xb8
 613 700 l 1
 663 700 697 662 697 616 c 0
 697 84 l 3
 697 34 663 0 613 0 c 1
 124 0 l 1
 74 0 40 38 40 84 c 0
 40 616 l 0
 40 666 74 700 124 700 c 1xb8
336 514 m 24
 333 511 333 507 333 507 c 0
 333 193 l 0
 333 193 333 189 336 186 c 24
 339 183 343 183 343 183 c 0
 407 183 l 0
 407 183 411 183 414 186 c 24
 417 189 417 194 417 194 c 0
 417 507 l 0
 417 507 417 511 414 514 c 24
 411 517 407 517 407 517 c 0
 343 517 l 0
 343 517 339 517 336 514 c 24
EndSplineSet
Validated: 1
EndChar

StartChar: C
Encoding: 67 67 9
Width: 737
Flags: W
VStem: 40 293<186.141 513.859> 417 280<186.142 267 433 513.859>
LayerCount: 2
Fore
SplineSet
696 267 m 1
 696 267 696 155 697 84 c 1
 697 38 663 0 613 0 c 0
 124 0 l 1
 74 0 40 38 40 84 c 0
 40 616 l 0
 40 666 74 700 124 700 c 1
 613 700 l 3
 663 700 697 662 697 616 c 1
 696 545 696 433 696 433 c 1
 416 433 l 0
 417 507 l 0
 417 507 417 511 414 514 c 24
 411 517 407 517 407 517 c 0
 343 517 l 0
 343 517 339 517 336 514 c 24
 333 511 333 507 333 507 c 0
 333 193 l 0
 333 193 333 189 336 186 c 24
 339 183 343 183 343 183 c 0
 407 183 l 0
 407 183 411 183 414 186 c 24
 417 189 417 194 417 194 c 0
 417 267 l 0
 696 267 l 1
EndSplineSet
Validated: 1
EndChar

StartChar: D
Encoding: 68 68 10
Width: 737
Flags: W
HStem: 0 21G<40 638> 0 21G<40 638> 680 20G<40 638>
VStem: 40 293<186.141 513.859> 417 280<186.142 513.859>
LayerCount: 2
Fore
SplineSet
613 700 m 0xb8
 663 700 697 662 697 616 c 0
 697 84 l 3
 697 34 663 0 613 0 c 1
 40 0 l 1
 40 700 l 1
 613 700 l 0xb8
336 514 m 24
 333 511 333 507 333 507 c 0
 333 193 l 0
 333 193 333 189 336 186 c 24
 339 183 343 183 343 183 c 0
 407 183 l 0
 407 183 411 183 414 186 c 24
 417 189 417 194 417 194 c 0
 417 507 l 0
 417 507 417 511 414 514 c 24
 411 517 407 517 407 517 c 0
 343 517 l 0
 343 517 339 517 336 514 c 24
EndSplineSet
Validated: 1
EndChar

StartChar: B
Encoding: 66 66 11
Width: 737
Flags: W
HStem: 0 106<336.141 413.859> 298 106<336.141 413.859> 594 106<336.141 413.859>
VStem: 40 293<109.141 294.859 407.141 590.859> 417 279<109.142 294.859 407.142 590.859>
LayerCount: 2
Fore
SplineSet
612 0 m 0
 40 0 l 1
 40 700 l 25
 613 700 l 2
 663 700 697 662 697 616 c 0
 696 84 l 3
 696 34 658 0 612 0 c 0
336 295 m 24
 333 292 333 288 333 288 c 0
 333 116 l 0
 333 116 333 112 336 109 c 24
 339 106 343 106 343 106 c 0
 407 106 l 0
 407 106 411 106 414 109 c 24
 417 112 417 117 417 117 c 0
 417 288 l 0
 417 288 417 292 414 295 c 24
 411 298 407 298 407 298 c 0
 343 298 l 0
 343 298 339 298 336 295 c 24
336 591 m 24
 333 588 333 584 333 584 c 0
 333 414 l 0
 333 414 333 410 336 407 c 24
 339 404 343 404 343 404 c 0
 407 404 l 0
 407 404 411 404 414 407 c 24
 417 410 417 415 417 415 c 0
 417 584 l 0
 417 584 417 588 414 591 c 24
 411 594 407 594 407 594 c 0
 343 594 l 0
 343 594 339 594 336 591 c 24
EndSplineSet
Validated: 1
EndChar

StartChar: E
Encoding: 69 69 12
Width: 738
Flags: W
HStem: 0 183<336.141 697> 260 183<336.141 569> 517 183<336.141 697>
LayerCount: 2
Fore
SplineSet
124 700 m 0
 697 700 l 1
 698 517 l 0
 343 517 l 1
 343 517 339 517 336 514 c 24
 333 511 333 507 333 507 c 0
 333 453 l 0
 333 453 333 449 336 446 c 0
 339 443 343 443 343 443 c 1
 569 443 l 0
 569 260 l 1
 343 260 l 1
 343 260 339 260 336 257 c 24
 333 254 333 250 333 250 c 0
 333 193 l 0
 333 193 333 189 336 186 c 24
 339 183 343 183 343 183 c 1
 697 183 l 0
 697 0 l 1
 124 0 l 0
 74 0 40 38 40 84 c 0
 40 616 l 0
 40 666 78 700 124 700 c 0
EndSplineSet
Validated: 1
EndChar

StartChar: F
Encoding: 70 70 13
Width: 738
Flags: W
HStem: 0 21G<40 333> 0 21G<40 333> 260 183<336.141 568> 517 183<336.141 697>
VStem: 40 293<0 256.859 446.141 513.859>
LayerCount: 2
Fore
SplineSet
333 250 m 1xb8
 333 0 l 1
 40 0 l 1
 40 700 l 25
 697 700 l 1
 698 517 l 0
 343 517 l 1
 343 517 339 517 336 514 c 24
 333 511 333 507 333 507 c 0
 333 453 l 0
 333 453 333 449 336 446 c 0
 339 443 343 443 343 443 c 1
 568 443 l 0
 568 260 l 1
 343 260 l 1
 343 260 339 260 336 257 c 24
 333 254 333 250 333 250 c 1xb8
EndSplineSet
Validated: 1
EndChar

StartChar: L
Encoding: 76 76 14
Width: 592
Flags: W
HStem: 0 183<335.141 551> 680 20G<40 332>
VStem: 40 292<186.141 700>
LayerCount: 2
Fore
SplineSet
342 183 m 1
 551 183 l 1
 552 0 l 1
 40 0 l 1
 40 700 l 1
 332 700 l 0
 332 193 l 0
 332 193 332 189 335 186 c 24
 338 183 342 183 342 183 c 1
EndSplineSet
Validated: 1
EndChar

StartChar: uni0001
Encoding: 1 1 16
Width: 1000
Flags: W
HStem: -166 39<700 828> -97 63<500 828> -87 54<172 418> 0 21G<172 418 491.759 828> 0 21G<172 418 491.759 828> 680 20G<172 508.283 582 828> 760 20<172 828>
VStem: 172 246<-87 -33 0 199> 582 246<502 699>
LayerCount: 2
Fore
SplineSet
418 -127 m 1x8780
 502 -127 l 1
 502 -172 l 1
 418 -172 l 1
 418 -127 l 1x8780
828 780 m 1
 828 760 l 1
 172 760 l 1
 172 780 l 1
 828 780 l 1
700 -127 m 1
 828 -127 l 1
 828 -166 l 1
 700 -166 l 1
 700 -127 l 1
418 -127 m 1
 418 -172 l 1
 502 -172 l 1
 502 -127 l 1
 418 -127 l 1
500 -34 m 1xc780
 828 -34 l 1
 828 -97 l 1
 500 -97 l 1
 500 -34 l 1xc780
172 -87 m 1xa780
 172 -33 l 1
 418 -33 l 1
 418 -87 l 1
 172 -87 l 1xa780
172 0 m 1x9780
 172 700 l 25
 500 700 l 1
 582 502 l 25
 582 699 l 1
 828 700 l 1
 828 0 l 25
 500 0 l 1
 418 199 l 25
 418 0 l 1
 172 0 l 1x9780
EndSplineSet
Validated: 5
EndChar

StartChar: U
Encoding: 85 85 17
Width: 737
Flags: W
HStem: 0 21G<99 636> 0 21G<99 636> 680 20G<40 320 404 697>
VStem: 40 280<186.141 699> 404 293<186.141 700>
LayerCount: 2
Fore
SplineSet
404 700 m 4xb8
 697 700 l 5
 697 84 l 7
 697 38 659 0 613 0 c 4
 124 0 l 7
 74 0 40 38 40 84 c 4
 40 700 l 5
 320 699 l 4
 320 193 l 4
 320 193 320 189 323 186 c 28
 326 183 330 183 330 183 c 4
 394 183 l 4
 394 183 398 183 401 186 c 28
 404 189 404 193 404 193 c 4
 404 700 l 4xb8
EndSplineSet
Validated: 1
EndChar

StartChar: V
Encoding: 86 86 18
Width: 737
Flags: W
HStem: 0 21G<296.457 440.543> 0 21G<296.457 440.543> 680 20G<40 292.091 444.663 697>
LayerCount: 2
Fore
SplineSet
374 457 m 0xa0
 451 700 l 1
 697 700 l 1
 433 0 l 1
 304 0 l 1
 40 700 l 1
 286 700 l 1
 360 457 l 0
 360 457 363 454 367 454 c 0
 371 454 374 457 374 457 c 0xa0
EndSplineSet
Validated: 1
EndChar

StartChar: S
Encoding: 83 83 19
Width: 738
Flags: W
HStem: 293 124<332 405.906> 537 163<332 413.813>
VStem: 405 293<166.141 293>
LayerCount: 2
Fore
SplineSet
698 333 m 0
 698 84 l 2
 698 34 660 0 614 0 c 2
 124 0 l 2
 74 0 40 38 40 84 c 2
 40 217 l 1
 310 217 l 0
 310 217 314 217 318 214 c 0
 320 211 320 207 320 207 c 0
 321 173 l 1
 321 173 321 169 324 166 c 0
 327 163 331 163 331 163 c 1
 395 163 l 1
 395 163 399 163 402 166 c 0
 405 169 405 173 405 173 c 1
 406 283 l 0
 406 283 406 287 402 290 c 0
 400 293 396 293 396 293 c 0
 124 293 l 0
 74 293 40 331 40 377 c 0
 40 616 l 3
 40 666 78 700 124 700 c 2
 614 700 l 2
 664 700 698 662 698 616 c 0
 697 483 l 1
 426 483 l 0
 426 483 422 483 420 486 c 0
 416 489 416 493 416 493 c 0
 416 527 l 1
 416 527 416 531 414 534 c 0
 410 537 406 537 406 537 c 1
 342 537 l 1
 342 537 338 537 336 534 c 0
 332 531 332 527 332 527 c 1
 332 427 l 0
 332 427 332 423 336 420 c 0
 338 417 342 417 342 417 c 0
 614 417 l 0
 664 417 698 379 698 333 c 0
EndSplineSet
Validated: 1
EndChar

StartChar: T
Encoding: 84 84 20
Width: 811
Flags: W
HStem: 0 21G<260 552> 0 21G<260 552> 517 183<40 255.859 554.142 770>
VStem: 260 292<0 513.859>
LayerCount: 2
Fore
SplineSet
40 700 m 13xb0
 771 700 l 5
 770 517 l 5
 562 517 l 5
 562 517 557 517 554 514 c 28
 551 511 552 507 552 507 c 4
 552 0 l 4
 260 0 l 4
 260 507 l 4
 260 507 259 511 256 514 c 28
 253 517 250 517 250 517 c 5
 40 517 l 5
 40 700 l 13xb0
EndSplineSet
Validated: 1
EndChar

StartChar: W
Encoding: 87 87 21
Width: 919
Flags: W
HStem: 0 21G<142.971 422.343 496.96 775.057> 0 21G<142.971 422.343 496.96 775.057> 680 20G<40 266.025 340.683 578.317 652.975 879>
LayerCount: 2
Fore
SplineSet
575 700 m 21xa0
 608 501 l 5
 658 700 l 5
 879 700 l 5
 772 0 l 5
 501 0 l 5
 461 198 l 5
 418 0 l 5
 146 0 l 29
 40 700 l 5
 261 700 l 5
 311 501 l 29
 344 700 l 5
 575 700 l 21xa0
EndSplineSet
Validated: 1
EndChar

StartChar: K
Encoding: 75 75 22
Width: 818
Flags: W
HStem: 0 21G<40 368 442.658 778> 0 21G<40 368 442.658 778> 680 20G<40 368 451 769.429>
VStem: 40 328<0 199 501 698>
LayerCount: 2
Fore
SplineSet
368 698 m 5xb0
 368 501 l 29
 451 699 l 5
 778 700 l 5
 628 350 l 4
 778 0 l 5
 451 0 l 5
 368 199 l 29
 368 0 l 5
 40 0 l 5
 40 700 l 5
 368 698 l 5xb0
EndSplineSet
Validated: 1
EndChar

StartChar: R
Encoding: 82 82 23
Width: 737
Flags: W
HStem: 0 21G<40 332 406.658 696> 0 21G<40 332 406.658 696> 680 20G<40 638>
VStem: 40 292<0 199 314 507> 417 280<315 507>
LayerCount: 2
Fore
SplineSet
415 0 m 1xb8
 332 199 l 1
 332 0 l 1
 40 0 l 1
 40 700 l 1
 613 700 l 2
 663 700 697 662 697 616 c 2
 697 283 l 2
 697 233 663 199 613 199 c 2
 601 199 l 1
 696 0 l 1
 415 0 l 1xb8
336 514 m 0
 333 511 333 507 333 507 c 1
 333 314 l 1
 333 314 333 310 336 307 c 0
 339 304 343 304 343 304 c 1
 407 304 l 1
 407 304 411 304 414 307 c 0
 417 310 417 315 417 315 c 1
 417 507 l 1
 417 507 417 511 414 514 c 0
 411 517 407 517 407 517 c 1
 343 517 l 1
 343 517 339 517 336 514 c 0
EndSplineSet
Validated: 1
EndChar

StartChar: X
Encoding: 88 88 24
Width: 712
Flags: W
HStem: 0 21G<40 295.104 416.299 672> 0 21G<40 295.104 416.299 672> 680 20G<58 313.114 379.392 634>
LayerCount: 2
Fore
SplineSet
361 134 m 4xa0
 361 134 358 137 354 137 c 4
 350 137 347 134 347 134 c 4
 286 0 l 5
 40 0 l 5
 228 377 l 5
 58 700 l 5
 304 700 l 5
 340 621 l 4
 340 621 343 618 347 618 c 4
 351 618 354 621 354 621 c 4
 388 700 l 5
 634 700 l 5
 474 377 l 5
 672 0 l 5
 426 0 l 5
 361 134 l 4xa0
EndSplineSet
Validated: 1
EndChar

StartChar: Y
Encoding: 89 89 25
Width: 876
Flags: W
HStem: 0 21G<320 566> 0 21G<320 566> 680 20G<40 377.701 498.896 836>
VStem: 320 246<0 246>
LayerCount: 2
Fore
SplineSet
508 700 m 5xb0
 836 700 l 5
 566 246 l 5
 566 0 l 5
 320 0 l 21
 320 246 l 5
 40 700 l 5
 368 700 l 5
 433 566 l 4
 433 566 436 563 440 563 c 4
 444 563 447 566 447 566 c 4
 508 700 l 5xb0
EndSplineSet
Validated: 1
EndChar

StartChar: G
Encoding: 71 71 26
Width: 785
Flags: W
HStem: 267 84<700.141 745>
VStem: 40 293<186.141 513.859> 417 279<186.142 263.859 433 513.859>
LayerCount: 2
Fore
SplineSet
696 257 m 1
 697 84 l 1
 697 38 663 0 613 0 c 3
 124 0 l 1
 74 0 40 38 40 84 c 0
 40 616 l 0
 40 666 74 700 124 700 c 1
 613 700 l 0
 663 700 697 662 697 616 c 1
 696 433 l 1
 416 433 l 0
 417 507 l 0
 417 507 417 511 414 514 c 24
 411 517 407 517 407 517 c 0
 343 517 l 0
 343 517 339 517 336 514 c 24
 333 511 333 507 333 507 c 0
 333 193 l 0
 333 193 333 189 336 186 c 24
 339 183 343 183 343 183 c 0
 407 183 l 0
 407 183 411 183 414 186 c 24
 417 189 417 194 417 194 c 1
 418 341 l 0
 418 341 417 345 420 348 c 0
 423 351 428 351 428 351 c 0
 745 351 l 5
 745 267 l 5
 706 267 l 0
 706 267 703 267 700 264 c 0
 697 261 696 257 696 257 c 1
EndSplineSet
Validated: 1
EndChar

StartChar: Q
Encoding: 81 81 27
Width: 737
Flags: W
HStem: 680 20G<99 638>
VStem: 40 293<186.141 513.859> 417 280<186.142 513.859>
LayerCount: 2
Fore
SplineSet
564 0 m 4
 564 -61 l 5
 564 -61 564 -65 567 -68 c 4
 570 -71 574 -71 574 -71 c 4
 612 -71 l 5
 612 -200 l 5
 370 -200 l 4
 320 -200 286 -162 286 -116 c 5
 284 0 l 4
 124 0 l 5
 74 0 40 38 40 84 c 4
 40 616 l 4
 40 666 74 700 124 700 c 5
 613 700 l 5
 663 700 697 662 697 616 c 4
 697 84 l 7
 697 34 663 0 613 0 c 5
 564 0 l 4
336 514 m 28
 333 511 333 507 333 507 c 4
 333 193 l 4
 333 193 333 189 336 186 c 28
 339 183 343 183 343 183 c 4
 407 183 l 4
 407 183 411 183 414 186 c 28
 417 189 417 194 417 194 c 4
 417 507 l 4
 417 507 417 511 414 514 c 28
 411 517 407 517 407 517 c 4
 343 517 l 4
 343 517 339 517 336 514 c 28
EndSplineSet
Validated: 1
EndChar

StartChar: e
Encoding: 101 101 28
Width: 738
Flags: W
HStem: 0 184<336.141 697> 260 83<336.141 569> 418 183<336.141 697>
LayerCount: 2
Fore
SplineSet
124 601 m 0
 697 601 l 1
 698 418 l 0
 343 418 l 1
 343 418 339 417 336 414 c 24
 333 411 333 408 333 408 c 0
 333 354 l 0
 333 354 333 349 336 346 c 0
 339 343 343 343 343 343 c 1
 569 343 l 0
 569 260 l 5
 343 260 l 5
 343 260 339 261 336 258 c 28
 333 255 333 250 333 250 c 4
 333 194 l 4
 333 194 333 189 336 186 c 28
 339 183 343 184 343 184 c 5
 697 184 l 4
 697 0 l 1
 124 0 l 0
 74 0 40 38 40 84 c 0
 40 516 l 0
 40 566 78 601 124 601 c 0
EndSplineSet
Validated: 1
EndChar

StartChar: n
Encoding: 110 110 29
Width: 737
Flags: W
HStem: 0 21G<40 286 360.658 697> 0 21G<40 286 360.658 697> 580 20G<40 376.384 451 697> 580 20G<40 376.384 451 697>
VStem: 40 246<0 199> 451 246<402 600>
LayerCount: 2
Fore
SplineSet
40 0 m 1xac
 40 600 l 25
 368 600 l 1
 451 402 l 25
 451 600 l 1
 697 600 l 1
 697 0 l 1
 369 0 l 5
 286 199 l 29
 286 0 l 5
 40 0 l 1xac
EndSplineSet
Validated: 1
EndChar

StartChar: u
Encoding: 117 117 30
Width: 737
Flags: W
HStem: 0 21G<99 636> 0 21G<99 636> 580 20G<40 320 404 697> 580 20G<40 320 404 697>
VStem: 40 280<186.141 600> 404 293<186.141 600>
LayerCount: 2
Fore
SplineSet
404 600 m 4xac
 697 600 l 5
 697 84 l 3
 697 38 659 0 613 0 c 0
 124 0 l 3
 74 0 40 38 40 84 c 0
 40 600 l 5
 320 600 l 4
 320 193 l 0
 320 193 320 189 323 186 c 24
 326 183 330 183 330 183 c 0
 394 183 l 0
 394 183 398 183 401 186 c 24
 404 189 404 193 404 193 c 0
 404 600 l 4xac
EndSplineSet
Validated: 1
EndChar

StartChar: d
Encoding: 100 100 31
Width: 737
Flags: W
HStem: 0 21G<40 638> 0 21G<40 638> 580 20G<40 638> 580 20G<40 638>
VStem: 40 293<186.141 413.859> 417 280<186.142 413.859>
LayerCount: 2
Fore
SplineSet
613 600 m 0xac
 663 600 697 562 697 516 c 0
 697 84 l 3
 697 34 663 0 613 0 c 1
 40 0 l 1
 40 600 l 1
 613 600 l 0xac
336 414 m 24
 333 411 333 408 333 408 c 0
 333 193 l 0
 333 193 333 189 336 186 c 24
 339 183 343 183 343 183 c 0
 407 183 l 0
 407 183 411 183 414 186 c 24
 417 189 417 194 417 194 c 0
 417 408 l 0
 417 408 417 411 414 414 c 24
 411 417 407 418 407 418 c 0
 343 418 l 0
 343 418 339 417 336 414 c 24
EndSplineSet
Validated: 1
EndChar

StartChar: a
Encoding: 97 97 32
Width: 737
Flags: W
HStem: 0 21G<40 332 416 697> 0 21G<40 332 416 697> 106 98<343 405> 580 20G<101 638> 580 20G<101 638>
VStem: 40 293<0 95 214 408> 417 280<0 95 216 408>
LayerCount: 2
Fore
SplineSet
336 414 m 24x26
 333 411 333 408 333 408 c 0
 333 214 l 0
 333 214 333 211 336 208 c 24
 339 205 343 204 343 204 c 0
 407 204 l 0
 407 204 411 205 414 208 c 24
 417 211 417 216 417 216 c 0
 417 408 l 0
 417 408 417 411 414 414 c 24
 411 417 407 418 407 418 c 0
 343 418 l 0
 343 418 339 417 336 414 c 24x26
416 0 m 0xb6
 416 95 l 0
 416 95 416 98 413 102 c 24
 410 106 405 106 405 106 c 0
 343 106 l 0
 343 106 338 106 335 102 c 24
 332 98 332 95 332 95 c 0
 332 0 l 0
 40 0 l 1
 40 516 l 3
 40 562 78 600 124 600 c 0
 613 600 l 3
 663 600 697 562 697 516 c 0
 697 0 l 1
 416 0 l 0xb6
EndSplineSet
Validated: 1
EndChar

StartChar: o
Encoding: 111 111 33
Width: 737
Flags: W
HStem: 0 21G<99 638> 0 21G<99 638> 580 20G<99 638> 580 20G<99 638>
VStem: 40 293<186.141 413.859> 417 280<186.142 413.859>
LayerCount: 2
Fore
SplineSet
124 600 m 1xac
 613 600 l 1
 663 600 697 562 697 516 c 0
 697 84 l 3
 697 34 663 0 613 0 c 1
 124 0 l 1
 74 0 40 38 40 84 c 0
 40 517 l 0
 40 567 74 600 124 600 c 1xac
336 414 m 24
 333 411 333 408 333 408 c 0
 333 193 l 0
 333 193 333 189 336 186 c 24
 339 183 343 183 343 183 c 0
 407 183 l 0
 407 183 411 183 414 186 c 24
 417 189 417 194 417 194 c 0
 417 408 l 0
 417 408 417 411 414 414 c 24
 411 417 407 418 407 418 c 0
 343 418 l 0
 343 418 339 417 336 414 c 24
EndSplineSet
Validated: 1
EndChar

StartChar: i
Encoding: 105 105 34
Width: 408
Flags: W
HStem: 0 21G<40 368> 0 21G<40 368> 580 20G<40 368> 580 20G<40 368>
VStem: 40 328<0 600>
LayerCount: 2
Fore
SplineSet
40 0 m 1xa8
 40 600 l 5
 368 600 l 5
 368 0 l 1
 40 0 l 1xa8
EndSplineSet
Validated: 1
EndChar

StartChar: m
Encoding: 109 109 35
Width: 819
Flags: W
HStem: 0 21G<40 286 360.658 458.342 533 779> 0 21G<40 286 360.658 458.342 533 779> 580 20G<40 372.04 446.657 779> 580 20G<40 372.04 446.657 779>
VStem: 40 246<0 199> 533 246<0 199>
LayerCount: 2
Fore
SplineSet
369 0 m 17xac
 286 199 l 1
 286 0 l 1
 40 0 l 1
 40 600 l 1
 368 600 l 1
 408 402 l 1
 451 600 l 1
 779 600 l 25
 779 0 l 1
 533 0 l 1
 533 199 l 25
 450 0 l 1
 369 0 l 17xac
EndSplineSet
Validated: 1
EndChar

StartChar: x
Encoding: 120 120 36
Width: 712
Flags: W
HStem: 0 21G<40 295.104 416.299 672> 0 21G<40 295.104 416.299 672> 580 20G<58 313.114 379.392 634> 580 20G<58 313.114 379.392 634>
LayerCount: 2
Fore
SplineSet
361 134 m 0xa0
 361 134 358 137 354 137 c 0
 350 137 347 134 347 134 c 0
 286 0 l 1
 40 0 l 1
 228 337 l 5
 58 600 l 1
 304 600 l 1
 340 521 l 0
 340 521 343 518 347 518 c 0
 351 518 354 521 354 521 c 0
 388 600 l 1
 634 600 l 1
 474 337 l 5
 672 0 l 1
 426 0 l 1
 361 134 l 0xa0
EndSplineSet
Validated: 1
EndChar

StartChar: t
Encoding: 116 116 37
Width: 811
Flags: W
HStem: 0 21G<260 552> 0 21G<260 552> 418 183<40 259.999 554.142 770>
VStem: 260 292<0 413.859>
LayerCount: 2
Fore
SplineSet
40 601 m 9xb0
 771 601 l 1
 770 418 l 1
 562 418 l 1
 562 418 557 417 554 414 c 24
 551 411 552 408 552 408 c 0
 552 0 l 0
 260 0 l 0
 260 408 l 0
 260 408 259 411 256 414 c 24
 253 417 250 418 250 418 c 1
 40 418 l 1
 40 601 l 9xb0
EndSplineSet
Validated: 1
EndChar

StartChar: z
Encoding: 122 122 38
Width: 594
Flags: W
HStem: 0 196<425 554> 404 196<42 171>
VStem: 40 514<0 196 404 600>
LayerCount: 2
Fore
SplineSet
554 0 m 1
 40 0 l 1
 40 196 l 1
 171 404 l 1
 42 404 l 1
 42 600 l 1
 554 600 l 1
 554 404 l 1
 425 196 l 1
 554 196 l 1
 554 0 l 1
EndSplineSet
Validated: 1
EndChar

StartChar: y
Encoding: 121 121 39
Width: 876
Flags: W
HStem: 0 21G<320 566> 0 21G<320 566> 580 20G<40 377.701 498.896 836> 580 20G<40 377.701 498.896 836>
VStem: 320 246<0 147>
LayerCount: 2
Fore
SplineSet
508 600 m 1xa8
 836 600 l 1
 566 147 l 1
 566 0 l 1
 320 0 l 1
 320 147 l 1
 40 600 l 1
 368 600 l 1
 433 466 l 0
 433 466 436 464 440 464 c 0
 444 464 447 466 447 466 c 0
 508 600 l 1xa8
EndSplineSet
Validated: 1
EndChar

StartChar: w
Encoding: 119 119 40
Width: 919
Flags: W
HStem: 0 21G<142.467 422.343 496.96 775.567> 0 21G<142.467 422.343 496.96 775.567> 580 20G<40 266.051 340.667 578.333 652.949 879> 580 20G<40 266.051 340.667 578.333 652.949 879>
LayerCount: 2
Fore
SplineSet
575 600 m 17xa0
 608 402 l 1
 658 600 l 1
 879 600 l 1
 772 0 l 1
 501 0 l 1
 461 198 l 1
 418 0 l 1
 146 0 l 1
 40 600 l 1
 261 600 l 1
 311 402 l 25
 344 600 l 1
 575 600 l 17xa0
EndSplineSet
Validated: 1
EndChar

StartChar: v
Encoding: 118 118 41
Width: 737
Flags: W
HStem: 0 21G<295.2 441.8> 0 21G<295.2 441.8> 580 20G<40 293.668 443.021 697> 580 20G<40 293.668 443.021 697>
LayerCount: 2
Fore
SplineSet
374 407 m 0xa0
 451 600 l 1
 697 600 l 1
 433 0 l 1
 304 0 l 1
 40 600 l 1
 286 600 l 1
 360 407 l 0
 360 407 363 404 367 404 c 0
 371 404 374 407 374 407 c 0xa0
EndSplineSet
Validated: 1
EndChar

StartChar: c
Encoding: 99 99 42
Width: 737
Flags: W
VStem: 40 293<186.141 413.859>
LayerCount: 2
Fore
SplineSet
696 217 m 5
 696 217 697 155 697 84 c 1
 697 38 663 0 613 0 c 0
 124 0 l 1
 74 0 40 38 40 84 c 0
 40 517 l 0
 40 567 74 600 124 600 c 1
 613 600 l 3
 663 600 697 562 697 516 c 1
 697 445 696 384 696 384 c 1
 416 384 l 0
 417 408 l 0
 417 408 417 411 414 414 c 24
 411 417 407 418 407 418 c 0
 343 418 l 0
 343 418 339 417 336 414 c 24
 333 411 333 408 333 408 c 0
 333 193 l 0
 333 193 333 189 336 186 c 24
 339 183 343 183 343 183 c 0
 407 183 l 0
 407 183 411 183 414 186 c 24
 417 189 417 194 417 194 c 0
 417 217 l 4
 696 217 l 5
EndSplineSet
Validated: 1
EndChar

StartChar: k
Encoding: 107 107 43
Width: 818
Flags: W
HStem: 0 21G<40 368 442.658 778> 0 21G<40 368 442.658 778> 580 20G<40 368 442.616 778> 580 20G<40 368 442.616 778>
VStem: 40 328<0 199 402 598>
LayerCount: 2
Fore
SplineSet
368 598 m 1xa8
 368 402 l 29
 451 600 l 1
 778 600 l 1
 628 300 l 0
 778 0 l 1
 451 0 l 1
 368 199 l 25
 368 0 l 1
 40 0 l 1
 40 600 l 1
 368 598 l 1xa8
EndSplineSet
Validated: 1
EndChar

StartChar: j
Encoding: 106 106 44
Width: 737
Flags: W
HStem: 580 20G<405 697> 580 20G<405 697>
VStem: 405 292<186.141 600>
LayerCount: 2
Fore
SplineSet
321 217 m 21xa0
 321 193 l 0
 321 193 321 189 324 186 c 24
 327 183 331 183 331 183 c 0
 395 183 l 0
 395 183 399 183 402 186 c 24
 405 189 405 193 405 193 c 0
 405 600 l 0
 697 600 l 1
 697 0 l 1
 124 0 l 3
 74 0 40 38 40 84 c 9
 40 155 40 217 40 217 c 4
 321 217 l 21xa0
EndSplineSet
Validated: 1
EndChar

StartChar: l
Encoding: 108 108 45
Width: 592
Flags: W
HStem: 0 183<335.141 551> 580 20G<40 332> 580 20G<40 332>
VStem: 40 292<186.141 600>
LayerCount: 2
Fore
SplineSet
342 183 m 1xd0
 551 183 l 1
 552 0 l 1
 40 0 l 1
 40 600 l 1
 332 600 l 0
 332 193 l 0
 332 193 332 189 335 186 c 24
 338 183 342 183 342 183 c 1xd0
EndSplineSet
Validated: 1
EndChar

StartChar: p
Encoding: 112 112 46
Width: 737
Flags: W
HStem: 0 21G<40 332> 0 21G<40 332> 106 148<336.141 413.859> 468 133<336.141 413.859>
VStem: 40 293<0 101.813 257.141 463.859> 417 280<257.142 463.859>
LayerCount: 2
Fore
SplineSet
613 601 m 19xbc
 663 601 697 562 697 516 c 0
 697 190 l 3
 697 140 663 106 613 106 c 0
 343 106 l 0
 343 106 338 106 335 102 c 0
 332 98 332 95 332 95 c 0
 332 0 l 0
 40 0 l 1
 40 601 l 1
 613 601 l 19xbc
336 464 m 28
 333 461 333 458 333 458 c 4
 333 264 l 4
 333 264 333 260 336 257 c 28
 339 254 343 254 343 254 c 4
 407 254 l 4
 407 254 411 254 414 257 c 28
 417 260 417 265 417 265 c 4
 417 458 l 4
 417 458 417 461 414 464 c 28
 411 467 407 468 407 468 c 4
 343 468 l 4
 343 468 339 467 336 464 c 28
EndSplineSet
Validated: 1
EndChar

StartChar: s
Encoding: 115 115 47
Width: 738
Flags: W
HStem: 0 188<73.8034 317.859> 0 134<324.141 401.859> 264 84<336.141 402.859> 468 133<336.141 413.859>
VStem: 405 293<136.142 259.859>
LayerCount: 2
Fore
SplineSet
698 264 m 4x78
 698 84 l 6
 698 51 660 0 614 0 c 6x78
 124 0 l 6
 74 0 40 57 40 84 c 6
 41 188 l 5
 311 188 l 4xb8
 311 188 315 187 318 184 c 4
 321 181 321 178 321 178 c 4
 321 144 l 5
 321 144 321 139 324 136 c 4
 327 133 331 134 331 134 c 5
 395 134 l 5
 395 134 399 133 402 136 c 4
 405 139 405 144 405 144 c 5
 406 254 l 4
 406 254 406 257 403 260 c 4
 400 263 396 264 396 264 c 4
 125 264 l 4
 75 264 41 302 41 348 c 4
 41 516 l 7
 41 566 79 601 125 601 c 6
 614 601 l 6
 664 601 698 562 698 516 c 4
 697 414 l 5
 427 414 l 4
 427 414 423 413 420 416 c 4
 417 419 417 424 417 424 c 4
 417 458 l 5
 417 458 417 461 414 464 c 4
 411 467 407 468 407 468 c 5
 343 468 l 5
 343 468 339 467 336 464 c 4
 333 461 333 458 333 458 c 5
 333 358 l 4
 333 358 333 353 336 350 c 4
 339 347 343 348 343 348 c 4
 614 348 l 4
 664 348 698 310 698 264 c 4x78
EndSplineSet
Validated: 1
EndChar

StartChar: r
Encoding: 114 114 48
Width: 737
Flags: W
HStem: 0 21G<40 332 406.658 696> 0 21G<40 332 406.658 696> 468 133<343 407>
VStem: 40 292<0 199 264 458> 417 280<266 458>
LayerCount: 2
Fore
SplineSet
415 0 m 5xb8
 332 199 l 5
 332 0 l 5
 40 0 l 5
 40 601 l 5
 613 601 l 6
 663 601 697 562 697 516 c 6
 697 284 l 6
 697 247 663 200 613 200 c 6
 601 200 l 5
 696 0 l 5
 415 0 l 5xb8
336 464 m 4
 333 461 333 458 333 458 c 5
 333 264 l 5
 333 264 333 261 336 258 c 4
 339 255 343 254 343 254 c 5
 407 254 l 5
 407 254 411 255 414 258 c 4
 417 261 417 266 417 266 c 5
 417 458 l 5
 417 458 417 461 414 464 c 4
 411 467 407 468 407 468 c 5
 343 468 l 5
 343 468 339 467 336 464 c 4
EndSplineSet
Validated: 1
EndChar

StartChar: q
Encoding: 113 113 49
Width: 737
Flags: W
HStem: 468 132<336.141 413.859>
VStem: 40 293<136.142 463.859> 417 280<136.142 463.859>
LayerCount: 2
Fore
SplineSet
564 0 m 0
 564 -61 l 1
 564 -61 564 -65 567 -68 c 0
 570 -71 574 -71 574 -71 c 0
 612 -71 l 1
 612 -200 l 1
 370 -200 l 0
 320 -200 286 -162 286 -116 c 1
 284 0 l 0
 124 0 l 1
 74 0 40 38 40 84 c 0
 40 517 l 0
 40 567 74 600 124 600 c 1
 613 600 l 1
 663 600 697 562 697 516 c 0
 697 84 l 3
 697 34 663 0 613 0 c 1
 564 0 l 0
336 464 m 24
 333 461 333 458 333 458 c 0
 333 144 l 0
 333 144 333 139 336 136 c 24
 339 133 343 134 343 134 c 0
 407 134 l 0
 407 134 411 133 414 136 c 24
 417 139 417 144 417 144 c 0
 417 458 l 0
 417 458 417 461 414 464 c 24
 411 467 407 468 407 468 c 0
 343 468 l 0
 343 468 339 467 336 464 c 24
EndSplineSet
Validated: 1
EndChar

StartChar: b
Encoding: 98 98 50
Width: 737
Flags: W
HStem: 0 106<336.141 413.859> 248 106<336.141 413.859> 494 106<336.141 413.859>
VStem: 40 293<109.141 244.859 358.141 491.858> 417 280<109.142 244.859 358.142 491.858>
LayerCount: 2
Fore
SplineSet
612 0 m 0
 40 0 l 1
 40 600 l 25
 613 600 l 2
 663 600 697 562 697 516 c 0
 697 84 l 3
 697 34 658 0 612 0 c 0
336 245 m 24
 333 242 333 238 333 238 c 0
 333 116 l 0
 333 116 333 112 336 109 c 24
 339 106 343 106 343 106 c 0
 407 106 l 0
 407 106 411 106 414 109 c 24
 417 112 417 117 417 117 c 0
 417 238 l 0
 417 238 417 242 414 245 c 24
 411 248 407 248 407 248 c 0
 343 248 l 0
 343 248 339 248 336 245 c 24
336 492 m 24
 333 489 333 484 333 484 c 0
 333 364 l 4
 333 364 333 361 336 358 c 28
 339 355 343 354 343 354 c 4
 407 354 l 4
 407 354 411 355 414 358 c 28
 417 361 417 366 417 366 c 4
 417 484 l 0
 417 484 417 489 414 492 c 24
 411 495 407 494 407 494 c 0
 343 494 l 0
 343 494 339 495 336 492 c 24
EndSplineSet
Validated: 1
EndChar

StartChar: h
Encoding: 104 104 51
Width: 737
Flags: W
HStem: 0 21G<40 332 416 697> 0 21G<40 332 416 697> 580 20G<40 333 417 697> 580 20G<40 333 417 697>
VStem: 40 293<0 191.813 408.141 600> 416 281<0 191.813 408.142 600>
LayerCount: 2
Fore
SplineSet
417 600 m 1xac
 697 600 l 0
 697 0 l 1
 416 0 l 0
 416 185 l 4
 416 185 416 188 413 192 c 28
 410 196 405 196 405 196 c 4
 343 196 l 4
 343 196 338 196 335 192 c 28
 332 188 332 185 332 185 c 4
 332 0 l 0
 40 0 l 1
 40 600 l 1
 333 600 l 0
 333 414 l 0
 333 414 333 411 336 408 c 24
 339 405 343 404 343 404 c 0
 407 404 l 0
 407 404 411 405 414 408 c 24
 417 411 417 416 417 416 c 0
 417 600 l 1xac
EndSplineSet
Validated: 1
EndChar

StartChar: g
Encoding: 103 103 52
Width: 785
Flags: W
HStem: 0 134<336.141 413.859> 168 84<696.001 745>
VStem: 40 293<136.142 413.859> 417 279<136.142 167.999 334 413.859>
LayerCount: 2
Fore
SplineSet
696 158 m 1
 697 84 l 1
 697 38 663 0 613 0 c 3
 124 0 l 1
 74 0 40 38 40 84 c 0
 40 517 l 0
 40 567 74 600 124 600 c 1
 613 600 l 0
 663 600 697 562 697 516 c 1
 696 334 l 1
 416 334 l 0
 417 408 l 0
 417 408 417 411 414 414 c 24
 411 417 407 418 407 418 c 0
 343 418 l 0
 343 418 339 417 336 414 c 24
 333 411 333 408 333 408 c 0
 333 144 l 4
 333 144 333 139 336 136 c 28
 339 133 343 134 343 134 c 4
 407 134 l 4
 407 134 411 133 414 136 c 28
 417 139 417 144 417 144 c 5
 418 242 l 0
 418 242 417 245 420 248 c 0
 423 251 428 252 428 252 c 0
 745 252 l 1
 745 168 l 1
 706 168 l 0
 706 168 703 167 700 164 c 0
 697 161 696 158 696 158 c 1
EndSplineSet
Validated: 1
EndChar

StartChar: f
Encoding: 102 102 53
Width: 738
Flags: W
HStem: 0 21G<40 333> 0 21G<40 333> 210 133<336.141 568> 418 183<336.141 697>
VStem: 40 293<0 207.858 346.142 413.859>
LayerCount: 2
Fore
SplineSet
333 200 m 1xb8
 333 0 l 1
 40 0 l 1
 40 601 l 25
 697 601 l 1
 698 418 l 0
 343 418 l 1
 343 418 339 417 336 414 c 24
 333 411 333 408 333 408 c 0
 333 354 l 0
 333 354 333 349 336 346 c 0
 339 343 343 343 343 343 c 1
 568 343 l 0
 568 210 l 1
 343 210 l 1
 343 210 339 211 336 208 c 24
 333 205 333 200 333 200 c 1xb8
EndSplineSet
Validated: 1
EndChar

StartChar: one
Encoding: 49 49 54
Width: 492
Flags: W
HStem: 0 21G<124 452> 0 21G<124 452> 537 163<40 124>
VStem: 124 328<0 537>
LayerCount: 2
Fore
SplineSet
124 537 m 1xb0
 40 537 l 1
 40 700 l 1
 452 700 l 1
 452 0 l 1
 124 0 l 1
 124 537 l 1xb0
EndSplineSet
Validated: 1
EndChar

StartChar: two
Encoding: 50 50 55
Width: 738
Flags: W
HStem: 0 163<336.141 697> 293 124<335.141 401.859>
LayerCount: 2
Fore
SplineSet
697 163 m 1
 698 0 l 25
 124 0 l 0
 78 0 40 34 40 84 c 2
 40 333 l 0
 40 379 74 417 124 417 c 0
 395 417 l 0
 395 417 399 417 402 420 c 0
 405 423 405 427 405 427 c 0
 405 527 l 5
 405 527 405 531 402 534 c 4
 399 537 395 537 395 537 c 5
 331 537 l 5
 331 537 327 537 324 534 c 4
 321 531 321 527 321 527 c 5
 321 493 l 4
 321 493 321 489 318 486 c 4
 315 483 311 483 311 483 c 4
 41 483 l 5
 40 616 l 4
 40 662 74 700 124 700 c 6
 613 700 l 6
 659 700 697 666 697 616 c 4
 697 377 l 0
 697 331 663 293 613 293 c 0
 342 293 l 0
 342 293 338 293 335 290 c 0
 332 287 332 283 332 283 c 0
 333 173 l 1
 333 173 333 169 336 166 c 0
 339 163 343 163 343 163 c 1
 697 163 l 1
EndSplineSet
Validated: 1
EndChar

StartChar: five
Encoding: 53 53 56
Width: 738
Flags: W
HStem: 283 124<335.141 401.859> 537 163<336.141 697>
VStem: 405 292<166.141 279.859>
LayerCount: 2
Fore
SplineSet
697 537 m 1
 343 537 l 1
 343 537 339 537 336 534 c 0
 333 531 333 527 333 527 c 1
 332 417 l 0
 332 417 332 413 335 410 c 0
 338 407 342 407 342 407 c 0
 613 407 l 0
 663 407 697 369 697 323 c 0
 697 84 l 0
 697 34 659 0 613 0 c 2
 124 0 l 2
 74 0 40 38 40 84 c 0
 41 217 l 1
 311 217 l 0
 311 217 315 217 318 214 c 0
 321 211 321 207 321 207 c 0
 321 173 l 1
 321 173 321 169 324 166 c 0
 327 163 331 163 331 163 c 1
 395 163 l 1
 395 163 399 163 402 166 c 0
 405 169 405 173 405 173 c 1
 405 273 l 0
 405 273 405 277 402 280 c 0
 399 283 395 283 395 283 c 0
 124 283 l 0
 74 283 40 321 40 367 c 0
 40 616 l 2
 40 666 78 700 124 700 c 0
 698 700 l 25
 697 537 l 1
EndSplineSet
Validated: 1
EndChar

StartChar: eight
Encoding: 56 56 57
Width: 737
Flags: W
HStem: 0 106<336.141 413.859> 298 106<336.141 413.859> 594 106<336.141 413.859>
VStem: 40 293<109.141 294.859 407.141 590.859> 417 280<109.142 294.859 407.142 590.859>
LayerCount: 2
Fore
SplineSet
612 0 m 5
 124 0 l 5
 74 0 40 38 40 84 c 4
 40 616 l 7
 40 666 78 700 124 700 c 13
 613 700 l 6
 652 700 697 662 697 616 c 4
 697 84 l 7
 697 34 658 0 612 0 c 5
336 295 m 28
 333 292 333 288 333 288 c 4
 333 116 l 4
 333 116 333 112 336 109 c 28
 339 106 343 106 343 106 c 4
 407 106 l 4
 407 106 411 106 414 109 c 28
 417 112 417 117 417 117 c 4
 417 288 l 4
 417 288 417 292 414 295 c 28
 411 298 407 298 407 298 c 4
 343 298 l 4
 343 298 339 298 336 295 c 28
336 591 m 28
 333 588 333 584 333 584 c 4
 333 414 l 4
 333 414 333 410 336 407 c 28
 339 404 343 404 343 404 c 4
 407 404 l 4
 407 404 411 404 414 407 c 28
 417 410 417 415 417 415 c 4
 417 584 l 4
 417 584 417 588 414 591 c 28
 411 594 407 594 407 594 c 4
 343 594 l 4
 343 594 339 594 336 591 c 28
EndSplineSet
Validated: 1
EndChar

StartChar: nine
Encoding: 57 57 58
Width: 737
Flags: W
HStem: 0 21G<405 697> 0 21G<405 697> 680 20G<99 636>
VStem: 40 280<307.142 513.859> 404 293<0 101.813 307.141 513.859>
LayerCount: 2
Fore
SplineSet
613 700 m 0xb8
 659 700 697 666 697 616 c 0
 697 0 l 1
 405 0 l 0
 405 95 l 0
 405 95 405 98 402 102 c 0
 399 106 394 106 394 106 c 0
 124 106 l 0
 74 106 40 140 40 190 c 3
 40 616 l 0
 40 662 74 700 124 700 c 3
 613 700 l 0xb8
401 514 m 24
 398 517 394 517 394 517 c 0
 330 517 l 0
 330 517 326 517 323 514 c 24
 320 511 320 507 320 507 c 0
 320 315 l 0
 320 315 320 310 323 307 c 24
 326 304 330 304 330 304 c 0
 394 304 l 0
 394 304 398 304 401 307 c 24
 404 310 404 314 404 314 c 0
 404 507 l 0
 404 507 404 511 401 514 c 24
EndSplineSet
Validated: 1
EndChar

StartChar: colon
Encoding: 58 58 59
Width: 326
Flags: W
HStem: 106 192<43.1413 282.859> 404 190<43.1413 282.859>
VStem: 40 246<109.142 294.859 407.142 590.859>
LayerCount: 2
Fore
SplineSet
43 295 m 28
 46 298 50 298 50 298 c 4
 276 298 l 4
 276 298 280 298 283 295 c 28
 286 292 286 288 286 288 c 4
 286 117 l 4
 286 117 286 112 283 109 c 28
 280 106 276 106 276 106 c 4
 50 106 l 4
 50 106 46 106 43 109 c 28
 40 112 40 116 40 116 c 4
 40 288 l 4
 40 288 40 292 43 295 c 28
43 591 m 24
 46 594 50 594 50 594 c 0
 276 594 l 0
 276 594 280 594 283 591 c 24
 286 588 286 584 286 584 c 0
 286 415 l 0
 286 415 286 410 283 407 c 24
 280 404 276 404 276 404 c 0
 50 404 l 0
 50 404 46 404 43 407 c 24
 40 410 40 414 40 414 c 0
 40 584 l 0
 40 584 40 588 43 591 c 24
EndSplineSet
Validated: 1
EndChar

StartChar: three
Encoding: 51 51 60
Width: 738
Flags: W
HStem: 0 183<40 401.858> 257 183<169 401.858> 517 183<41 401.858>
LayerCount: 2
Fore
SplineSet
614 0 m 0
 40 0 l 1
 40 183 l 0
 394 183 l 1
 394 183 399 183 402 186 c 24
 405 189 404 193 404 193 c 0
 404 247 l 0
 404 247 405 251 402 254 c 0
 399 257 394 257 394 257 c 1
 169 257 l 0
 169 440 l 1
 394 440 l 1
 394 440 399 440 402 443 c 24
 405 446 404 450 404 450 c 0
 404 507 l 0
 404 507 405 511 402 514 c 24
 399 517 394 517 394 517 c 1
 41 517 l 0
 41 700 l 1
 614 700 l 0
 664 700 698 662 698 616 c 0
 698 84 l 0
 698 34 660 0 614 0 c 0
EndSplineSet
Validated: 1
EndChar

StartChar: seven
Encoding: 55 55 61
Width: 737
Flags: W
HStem: 0 21G<405 697> 0 21G<405 697>
VStem: 405 292<0 513.859>
LayerCount: 2
Fore
SplineSet
321 433 m 9xa0
 40 433 l 0
 40 433 40 545 40 616 c 17
 40 662 74 700 124 700 c 3
 697 700 l 1
 697 0 l 1
 405 0 l 0
 405 507 l 0
 405 507 405 511 402 514 c 24
 399 517 395 517 395 517 c 0
 331 517 l 0
 331 517 327 517 324 514 c 24
 321 511 321 507 321 507 c 0
 321 433 l 9xa0
EndSplineSet
Validated: 1
EndChar

StartChar: six
Encoding: 54 54 62
Width: 737
Flags: W
HStem: 0 21G<101 638> 0 21G<101 638> 680 20G<40 332>
VStem: 40 293<186.141 392.859 598.187 700> 417 280<186.141 392.858>
LayerCount: 2
Fore
SplineSet
124 0 m 0xb8
 78 0 40 34 40 84 c 0
 40 700 l 1
 332 700 l 0
 332 605 l 0
 332 605 332 602 335 598 c 0
 338 594 343 594 343 594 c 0
 613 594 l 0
 663 594 697 560 697 510 c 0
 697 84 l 0
 697 38 663 0 613 0 c 0
 124 0 l 0xb8
336 186 m 24
 339 183 343 183 343 183 c 0
 407 183 l 0
 407 183 411 183 414 186 c 24
 417 189 417 193 417 193 c 0
 417 385 l 0
 417 385 417 390 414 393 c 24
 411 396 407 396 407 396 c 0
 343 396 l 0
 343 396 339 396 336 393 c 24
 333 390 333 386 333 386 c 0
 333 193 l 0
 333 193 333 189 336 186 c 24
EndSplineSet
Validated: 1
EndChar

StartChar: four
Encoding: 52 52 63
Width: 737
Flags: W
HStem: 0 21G<405 697> 0 21G<405 697> 106 198<286 400.904> 680 20G<181.475 636>
VStem: 404 293<0 101.813 307.141 497.859>
LayerCount: 2
Fore
SplineSet
394 501 m 0x38
 360 501 l 1
 286 304 l 1
 394 304 l 0
 394 304 399 305 401 307 c 0
 404 310 404 314 404 314 c 0
 404 491 l 0
 404 491 404 495 401 498 c 0
 398 501 394 501 394 501 c 0x38
40 304 m 1
 189 700 l 0
 613 700 l 0
 659 700 697 666 697 616 c 0
 697 0 l 1
 405 0 l 0xb8
 405 95 l 0
 405 95 405 98 402 102 c 0
 399 106 394 106 394 106 c 0
 124 106 l 0
 74 106 40 140 40 190 c 3
 40 304 l 1
EndSplineSet
Validated: 1
EndChar

StartChar: exclam
Encoding: 33 33 64
Width: 326
Flags: W
HStem: 0 107<40 286> 680 20G<43 283>
VStem: 40 246<0 107 194.142 696.859>
LayerCount: 2
Fore
SplineSet
43 697 m 28
 46 700 50 700 50 700 c 4
 276 700 l 4
 276 700 280 700 283 697 c 28
 286 694 286 690 286 690 c 4
 286 202 l 4
 286 202 286 197 283 194 c 28
 280 191 276 191 276 191 c 4
 50 191 l 4
 50 191 46 191 43 194 c 28
 41 196 40 201 40 201 c 4
 40 690 l 4
 40 690 40 694 43 697 c 28
40 0 m 5
 40 107 l 5
 286 107 l 5
 286 0 l 5
 40 0 l 5
EndSplineSet
Validated: 1
EndChar

StartChar: question
Encoding: 63 63 65
Width: 737
Flags: W
HStem: 0 107<244 490> 191 226<270.088 401.859>
VStem: 244 246<0 107 191 289.859>
LayerCount: 2
Fore
SplineSet
244 191 m 25
 244 333 l 0
 244 379 278 417 328 417 c 0
 395 417 l 0
 395 417 399 417 402 420 c 0
 405 423 405 427 405 427 c 0
 405 527 l 1
 405 527 405 531 402 534 c 0
 399 537 395 537 395 537 c 1
 331 537 l 1
 331 537 327 537 324 534 c 0
 321 531 321 527 321 527 c 1
 321 493 l 0
 321 493 321 489 318 486 c 0
 315 483 311 483 311 483 c 0
 40 483 l 1
 40 616 l 0
 40 662 74 700 124 700 c 2
 613 700 l 2
 659 700 697 666 697 616 c 3
 697 377 l 0
 697 331 663 293 613 293 c 0
 500 293 l 0
 500 293 496 293 493 290 c 0
 490 287 490 283 490 283 c 0
 490 191 l 1
 244 191 l 25
490 0 m 1
 244 0 l 1
 244 107 l 1
 490 107 l 1
 490 0 l 1
EndSplineSet
Validated: 1
EndChar

StartChar: dollar
Encoding: 36 36 66
Width: 738
Flags: W
HStem: 0 188<73.8034 245> 264 84<336.141 402.859> 414 187<491 666.373>
VStem: 245 246<-195.858 0 601 749.859> 405 293<136.142 259.859>
LayerCount: 2
Fore
SplineSet
245 601 m 5xf0
 245 743 l 4
 245 743 245 747 248 750 c 28
 251 753 255 753 255 753 c 4
 481 753 l 4
 481 753 485 753 488 750 c 28
 491 747 491 743 491 743 c 4
 491 601 l 5xf0
 614 601 l 6
 654 601 698 562 698 516 c 6
 697 414 l 5
 427 414 l 5
 427 414 423 413 420 416 c 4
 417 419 417 424 417 424 c 5
 417 458 l 5
 417 458 417 461 414 464 c 4
 411 467 407 468 407 468 c 5
 343 468 l 5
 343 468 339 467 336 464 c 4
 333 461 333 458 333 458 c 5
 333 358 l 5
 333 358 333 353 336 350 c 4
 339 347 343 348 343 348 c 5
 614 348 l 6
 664 348 698 310 698 264 c 6
 698 84 l 6xe8
 698 51 660 0 614 0 c 6
 491 0 l 5
 491 -188 l 4
 491 -188 491 -193 488 -196 c 28
 485 -199 481 -199 481 -199 c 4
 255 -199 l 4
 255 -199 251 -199 248 -196 c 28
 246 -194 245 -189 245 -189 c 4
 245 0 l 5xf0
 124 0 l 6
 74 0 40 57 40 84 c 6
 41 188 l 5
 311 188 l 5
 311 188 315 187 318 184 c 4
 321 181 321 178 321 178 c 5
 321 144 l 5
 321 144 321 139 324 136 c 4
 327 133 331 134 331 134 c 5
 395 134 l 5
 395 134 399 133 402 136 c 4
 405 139 405 144 405 144 c 5xe8
 406 254 l 5
 406 254 406 257 403 260 c 4
 400 263 396 264 396 264 c 5
 125 264 l 4
 75 264 41 302 41 348 c 6
 41 516 l 6
 41 566 75 601 125 601 c 4
 245 601 l 5xf0
EndSplineSet
Validated: 1
EndChar

StartChar: zero
Encoding: 48 48 67
Width: 737
Flags: W
HStem: 0 21G<99 638> 0 21G<99 638> 680 20G<99 638>
LayerCount: 2
Fore
SplineSet
286 183 m 5x20
 370 183 l 5
 451 517 l 5
 367 517 l 5
 286 183 l 5x20
124 700 m 5
 613 700 l 5
 663 700 697 662 697 616 c 4
 697 84 l 7
 697 34 663 0 613 0 c 5
 124 0 l 5xa0
 74 0 40 38 40 84 c 4
 40 616 l 4
 40 666 74 700 124 700 c 5
EndSplineSet
Validated: 1
EndChar

StartChar: uni0002
Encoding: 2 2 68
Width: 467
Flags: W
HStem: 175 328
VStem: 70 328
LayerCount: 2
Fore
SplineSet
70 175 m 17
 234 503 l 0
 398 175 l 1
 70 175 l 17
EndSplineSet
Validated: 1
EndChar

StartChar: period
Encoding: 46 46 69
Width: 326
Flags: W
HStem: 0 192<50 276>
VStem: 40 246<11 182>
LayerCount: 2
Fore
SplineSet
43 189 m 24
 46 192 50 192 50 192 c 0
 276 192 l 0
 276 192 280 192 283 189 c 24
 286 186 286 182 286 182 c 0
 286 11 l 0
 286 11 286 6 283 3 c 24
 280 0 276 0 276 0 c 0
 50 0 l 0
 50 0 46 0 43 3 c 24
 40 6 40 10 40 10 c 0
 40 182 l 0
 40 182 40 186 43 189 c 24
EndSplineSet
Validated: 1
EndChar
